<svg width="218" height="218" viewBox="0 0 218 218" fill="none" xmlns="http://www.w3.org/2000/svg">
<rect width="218" height="218" fill="#D9D9D9"/>
<g clip-path="url(#clip0_54_585)">
<path fill-rule="evenodd" clip-rule="evenodd" d="M74.16 132.184V118.936H85.392V130.24C85.392 131.176 85.608 131.68 85.968 131.896C86.4 132.112 87.624 132.184 89.496 132.184C91.368 132.184 92.376 131.896 92.736 131.392C93.096 130.816 93.456 128.944 93.672 125.776L104.112 126.712C103.824 130.672 103.824 132.544 103.248 134.92C102.672 137.224 102.528 138.088 101.232 139.24C99.864 140.392 99.144 140.608 96.624 140.968C94.176 141.328 92.448 141.328 88.416 141.328C86.04 141.328 84.168 141.328 82.728 141.256C79.992 141.184 77.4 140.608 76.32 139.816C74.592 138.448 74.16 136.432 74.16 132.184ZM58.752 118.576L69.696 119.512C68.472 131.176 60.552 138.448 44.568 142.408L39.672 133.192C46.224 131.68 50.832 129.88 53.496 127.792C56.232 125.704 57.96 122.608 58.752 118.576ZM41.544 125.272V109.36H102.456V124.552H92.016V117.208H51.984V125.272H41.544ZM66.24 81.928V76.384H77.76V81.928H104.472V90.568H39.528V81.928H66.24ZM47.88 92.584H96.12V107.416H47.88V92.584ZM84.816 101.512V98.704H59.184V101.512H84.816ZM164.016 101.08V141.472H152.568V99.352H161.424C155.232 95.32 149.4 90.568 144 85.096C138.6 90.568 132.768 95.32 126.576 99.352H136.512V106.264C136.512 128.008 132.768 134.2 118.584 142.192L112.248 133.336C122.904 127.576 125.28 123.616 125.28 106.264V100.216C121.392 102.592 117.576 104.752 113.76 106.624L109.656 97.48C120.168 92.008 129.168 85.6 136.8 78.04H151.2C158.832 85.6 167.832 92.008 178.344 97.48L174.24 106.624C170.568 104.824 167.184 102.952 164.016 101.08Z" fill="#060613"/>
</g>
<defs>
<clipPath id="clip0_54_585">
<rect width="140" height="67" fill="white" transform="translate(39 76)"/>
</clipPath>
</defs>
	<style>
    @media (prefers-color-scheme:dark){:root{filter:invert(100%)}}
  </style>
</svg>
